<mxfile host="app.diagrams.net" modified="2021-10-14T06:29:50.947Z" agent="5.0 (Macintosh; Intel Mac OS X 10_15_7) AppleWebKit/537.36 (KHTML, like Gecko) Chrome/94.0.4606.81 Safari/537.36" etag="wZfsm5Os2B4vciGj4fyP" version="15.5.2" type="github">
  <diagram id="kjL0yHKqu0dJyB0R4nvB" name="Page-1">
    <mxGraphModel dx="1796" dy="1664" grid="1" gridSize="10" guides="1" tooltips="1" connect="1" arrows="1" fold="1" page="1" pageScale="1" pageWidth="850" pageHeight="1100" math="0" shadow="0">
      <root>
        <mxCell id="0" />
        <mxCell id="1" parent="0" />
        <mxCell id="0EkcyEbBukxJAR-DcMhM-29" value="" style="rounded=0;whiteSpace=wrap;html=1;fontFamily=Courier New;fontSize=13;fontColor=#000000;align=center;" parent="1" vertex="1">
          <mxGeometry x="-40" y="-10" width="830" height="710" as="geometry" />
        </mxCell>
        <mxCell id="0EkcyEbBukxJAR-DcMhM-1" value="&lt;font style=&quot;font-size: 12px&quot;&gt;void setup() {&lt;br&gt;&amp;nbsp; &amp;nbsp;int n = 4;&lt;br&gt;&amp;nbsp; &amp;nbsp;int[] a = bar(n);&lt;br&gt;}&lt;br&gt;&lt;br&gt;int[] bar(int count) {&lt;br&gt;&amp;nbsp; &amp;nbsp;int[] result = new int[count];&lt;br&gt;&amp;nbsp; &amp;nbsp;for(int i=0; i &amp;lt; result.length; i++) {&lt;br&gt;&amp;nbsp; &amp;nbsp; &amp;nbsp; result[i] = (int)random(100);&lt;br&gt;&amp;nbsp; &amp;nbsp;}&lt;br&gt;&amp;nbsp; &amp;nbsp;return result;&lt;br&gt;}&lt;/font&gt;" style="text;html=1;strokeColor=#6c8ebf;fillColor=#dae8fc;align=left;verticalAlign=middle;whiteSpace=wrap;rounded=0;fontStyle=1;fontFamily=Courier New;fontSize=13;" parent="1" vertex="1">
          <mxGeometry x="40" y="80" width="320" height="200" as="geometry" />
        </mxCell>
        <mxCell id="0EkcyEbBukxJAR-DcMhM-10" value="" style="rounded=0;whiteSpace=wrap;html=1;fontFamily=Courier New;fontSize=15;align=center;fillColor=#b0e3e6;strokeColor=#0e8088;" parent="1" vertex="1">
          <mxGeometry x="40" y="310" width="320" height="140" as="geometry" />
        </mxCell>
        <mxCell id="0EkcyEbBukxJAR-DcMhM-2" value="a" style="rounded=0;whiteSpace=wrap;html=1;fontFamily=Courier New;align=center;fontSize=15;fontStyle=1" parent="1" vertex="1">
          <mxGeometry x="62.5" y="350" width="120" height="40" as="geometry" />
        </mxCell>
        <mxCell id="0EkcyEbBukxJAR-DcMhM-3" value="" style="endArrow=classic;html=1;rounded=0;fontFamily=Courier New;fontSize=15;fontStyle=0;entryX=0;entryY=0;entryDx=0;entryDy=0;exitX=0.646;exitY=0.5;exitDx=0;exitDy=0;exitPerimeter=0;strokeColor=#009900;strokeWidth=4;" parent="1" source="0EkcyEbBukxJAR-DcMhM-2" target="0EkcyEbBukxJAR-DcMhM-5" edge="1">
          <mxGeometry width="50" height="50" relative="1" as="geometry">
            <mxPoint x="155" y="384.5" as="sourcePoint" />
            <mxPoint x="265" y="384.5" as="targetPoint" />
          </mxGeometry>
        </mxCell>
        <mxCell id="0EkcyEbBukxJAR-DcMhM-5" value="[0] = 10" style="rounded=0;whiteSpace=wrap;html=1;fontFamily=Courier New;align=center;fontSize=15;fontStyle=1" parent="1" vertex="1">
          <mxGeometry x="425" y="420" width="120" height="40" as="geometry" />
        </mxCell>
        <mxCell id="0EkcyEbBukxJAR-DcMhM-6" style="edgeStyle=orthogonalEdgeStyle;rounded=0;orthogonalLoop=1;jettySize=auto;html=1;exitX=0.5;exitY=1;exitDx=0;exitDy=0;fontFamily=Courier New;fontSize=15;fontStyle=1" parent="1" source="0EkcyEbBukxJAR-DcMhM-5" target="0EkcyEbBukxJAR-DcMhM-5" edge="1">
          <mxGeometry relative="1" as="geometry" />
        </mxCell>
        <mxCell id="0EkcyEbBukxJAR-DcMhM-7" value="[1] = 70" style="rounded=0;whiteSpace=wrap;html=1;fontFamily=Courier New;align=center;fontSize=15;fontStyle=1" parent="1" vertex="1">
          <mxGeometry x="425" y="460" width="120" height="40" as="geometry" />
        </mxCell>
        <mxCell id="0EkcyEbBukxJAR-DcMhM-8" value="[2] = 20" style="rounded=0;whiteSpace=wrap;html=1;fontFamily=Courier New;align=center;fontSize=15;fontStyle=1" parent="1" vertex="1">
          <mxGeometry x="425" y="500" width="120" height="40" as="geometry" />
        </mxCell>
        <mxCell id="0EkcyEbBukxJAR-DcMhM-9" value="[9] = 90" style="rounded=0;whiteSpace=wrap;html=1;fontFamily=Courier New;align=center;fontSize=15;fontStyle=1" parent="1" vertex="1">
          <mxGeometry x="425" y="540" width="120" height="40" as="geometry" />
        </mxCell>
        <mxCell id="0EkcyEbBukxJAR-DcMhM-11" value="variables inside setup" style="text;html=1;strokeColor=none;fillColor=none;align=center;verticalAlign=middle;whiteSpace=wrap;rounded=0;fontFamily=Courier New;fontSize=15;fontStyle=1" parent="1" vertex="1">
          <mxGeometry x="90" y="320" width="210" height="30" as="geometry" />
        </mxCell>
        <mxCell id="0EkcyEbBukxJAR-DcMhM-12" value="" style="rounded=0;whiteSpace=wrap;html=1;fontFamily=Courier New;fontSize=15;align=center;fillColor=#b1ddf0;strokeColor=#10739e;" parent="1" vertex="1">
          <mxGeometry x="40" y="510" width="320" height="130" as="geometry" />
        </mxCell>
        <mxCell id="0EkcyEbBukxJAR-DcMhM-13" value="count = 4&amp;nbsp;" style="rounded=0;whiteSpace=wrap;html=1;fontFamily=Courier New;align=center;fontSize=15;fontStyle=1" parent="1" vertex="1">
          <mxGeometry x="65" y="520" width="115" height="40" as="geometry" />
        </mxCell>
        <mxCell id="0EkcyEbBukxJAR-DcMhM-15" value="variables inside bar(n) call" style="text;html=1;strokeColor=none;fillColor=none;align=center;verticalAlign=middle;whiteSpace=wrap;rounded=0;fontFamily=Courier New;fontSize=15;fontStyle=1" parent="1" vertex="1">
          <mxGeometry x="60" y="610" width="270" height="30" as="geometry" />
        </mxCell>
        <mxCell id="0EkcyEbBukxJAR-DcMhM-17" value="result" style="rounded=0;whiteSpace=wrap;html=1;fontFamily=Courier New;align=center;fontSize=15;fontStyle=1" parent="1" vertex="1">
          <mxGeometry x="65" y="570" width="115" height="40" as="geometry" />
        </mxCell>
        <mxCell id="0EkcyEbBukxJAR-DcMhM-18" value="n = 4&amp;nbsp; &amp;nbsp;&amp;nbsp;" style="rounded=0;whiteSpace=wrap;html=1;fontFamily=Courier New;align=center;fontSize=15;fontStyle=1" parent="1" vertex="1">
          <mxGeometry x="62.5" y="400" width="120" height="40" as="geometry" />
        </mxCell>
        <mxCell id="0EkcyEbBukxJAR-DcMhM-19" value="" style="endArrow=classic;html=1;rounded=0;fontFamily=Courier New;fontSize=15;fontColor=#CC99FF;dashed=1;strokeWidth=4;fillColor=#1ba1e2;strokeColor=#006EAF;exitX=0.687;exitY=0.025;exitDx=0;exitDy=0;entryX=0.671;entryY=1.05;entryDx=0;entryDy=0;entryPerimeter=0;exitPerimeter=0;" parent="1" source="0EkcyEbBukxJAR-DcMhM-17" target="0EkcyEbBukxJAR-DcMhM-2" edge="1">
          <mxGeometry width="50" height="50" relative="1" as="geometry">
            <mxPoint x="90" y="580" as="sourcePoint" />
            <mxPoint x="90" y="360" as="targetPoint" />
          </mxGeometry>
        </mxCell>
        <mxCell id="0EkcyEbBukxJAR-DcMhM-20" value="" style="endArrow=classic;html=1;rounded=0;fontFamily=Courier New;fontSize=15;fontColor=#CC99FF;entryX=0.5;entryY=0;entryDx=0;entryDy=0;fontStyle=1;strokeWidth=4;fillColor=#f8cecc;strokeColor=#b85450;" parent="1" target="0EkcyEbBukxJAR-DcMhM-13" edge="1">
          <mxGeometry width="50" height="50" relative="1" as="geometry">
            <mxPoint x="123" y="440" as="sourcePoint" />
            <mxPoint y="250" as="targetPoint" />
          </mxGeometry>
        </mxCell>
        <mxCell id="0EkcyEbBukxJAR-DcMhM-23" value="" style="endArrow=classic;html=1;rounded=0;fontFamily=Courier New;fontSize=15;fontColor=#CC99FF;fontStyle=1;strokeWidth=4;fillColor=#f8cecc;strokeColor=#b85450;" parent="1" edge="1">
          <mxGeometry width="50" height="50" relative="1" as="geometry">
            <mxPoint x="460" y="150" as="sourcePoint" />
            <mxPoint x="560" y="150" as="targetPoint" />
          </mxGeometry>
        </mxCell>
        <mxCell id="0EkcyEbBukxJAR-DcMhM-24" value="Variable passing" style="text;html=1;align=center;verticalAlign=middle;resizable=0;points=[];autosize=1;strokeColor=none;fillColor=none;fontSize=15;fontFamily=Courier New;fontColor=#000000;fontStyle=1" parent="1" vertex="1">
          <mxGeometry x="590" y="140" width="160" height="20" as="geometry" />
        </mxCell>
        <mxCell id="0EkcyEbBukxJAR-DcMhM-25" value="" style="endArrow=classic;html=1;rounded=0;fontFamily=Courier New;fontSize=15;fontStyle=0;exitX=0.75;exitY=0.5;exitDx=0;exitDy=0;exitPerimeter=0;strokeColor=#009900;strokeWidth=4;" parent="1" edge="1">
          <mxGeometry width="50" height="50" relative="1" as="geometry">
            <mxPoint x="460" y="189.5" as="sourcePoint" />
            <mxPoint x="560" y="189.5" as="targetPoint" />
          </mxGeometry>
        </mxCell>
        <mxCell id="0EkcyEbBukxJAR-DcMhM-26" value="Reference" style="text;html=1;align=center;verticalAlign=middle;resizable=0;points=[];autosize=1;strokeColor=none;fillColor=none;fontSize=15;fontFamily=Courier New;fontColor=#000000;fontStyle=1" parent="1" vertex="1">
          <mxGeometry x="590" y="180" width="100" height="20" as="geometry" />
        </mxCell>
        <mxCell id="0EkcyEbBukxJAR-DcMhM-27" value="" style="endArrow=classic;html=1;rounded=0;fontFamily=Courier New;fontSize=15;fontColor=#CC99FF;exitX=0.75;exitY=0;exitDx=0;exitDy=0;dashed=1;strokeWidth=4;fillColor=#1ba1e2;strokeColor=#006EAF;" parent="1" edge="1">
          <mxGeometry width="50" height="50" relative="1" as="geometry">
            <mxPoint x="458.75" y="230" as="sourcePoint" />
            <mxPoint x="560" y="230" as="targetPoint" />
          </mxGeometry>
        </mxCell>
        <mxCell id="0EkcyEbBukxJAR-DcMhM-28" value="Array reference&lt;br&gt;being returned" style="text;html=1;align=center;verticalAlign=middle;resizable=0;points=[];autosize=1;strokeColor=none;fillColor=none;fontSize=15;fontFamily=Courier New;fontColor=#000000;fontStyle=1" parent="1" vertex="1">
          <mxGeometry x="590" y="210" width="150" height="40" as="geometry" />
        </mxCell>
        <mxCell id="0EkcyEbBukxJAR-DcMhM-14" value="" style="endArrow=classic;html=1;rounded=0;fontFamily=Courier New;fontSize=15;fontStyle=0;entryX=0;entryY=0.25;entryDx=0;entryDy=0;exitX=0.826;exitY=0.5;exitDx=0;exitDy=0;exitPerimeter=0;strokeColor=#009900;strokeWidth=4;" parent="1" source="0EkcyEbBukxJAR-DcMhM-17" target="0EkcyEbBukxJAR-DcMhM-5" edge="1">
          <mxGeometry width="50" height="50" relative="1" as="geometry">
            <mxPoint x="155" y="584.5" as="sourcePoint" />
            <mxPoint x="425" y="620" as="targetPoint" />
          </mxGeometry>
        </mxCell>
      </root>
    </mxGraphModel>
  </diagram>
</mxfile>
